<svg id="pharmacyClosed" xmlns="http://www.w3.org/2000/svg" width="64" height="64" viewBox="0 0 64 64">
  <g id="pharmacyLogo">
    <g id="Union_1" data-name="Union 1" transform="translate(14 9)" fill="#e80606">
      <path d="M 36.49959945678711 45.50030136108398 L 9.060969352722168 45.50030136108398 L 0.4999997317790985 45.50030136108398 L 0.4999997317790985 36.79983139038086 L 0.4999997317790985 27.60004043579102 L 0.4999997317790985 18.40026092529297 L 0.4999997317790985 9.199780464172363 L 0.4999997317790985 0.5000006556510925 L 36.49959945678711 0.5000006556510925 L 36.49959945678711 8.699780464172363 L 9.060969352722168 8.699780464172363 L 8.560969352722168 8.699780464172363 L 8.560969352722168 9.199780464172363 L 8.560969352722168 18.40026092529297 L 8.560969352722168 18.90026092529297 L 9.060969352722168 18.90026092529297 L 36.49959945678711 18.90026092529297 L 36.49959945678711 27.10004043579102 L 9.060969352722168 27.10004043579102 L 8.560969352722168 27.10004043579102 L 8.560969352722168 27.60004043579102 L 8.560969352722168 36.79983139038086 L 8.560969352722168 37.29983139038086 L 9.060969352722168 37.29983139038086 L 36.49959945678711 37.29983139038086 L 36.49959945678711 45.50030136108398 Z" stroke="none"/>
      <path d="M 35.99959945678711 45.00030136108398 L 35.99959945678711 37.79983139038086 L 8.060969352722168 37.79983139038086 L 8.060969352722168 26.60004043579102 L 35.99959945678711 26.60004043579102 L 35.99959945678711 19.40026092529297 L 8.060969352722168 19.40026092529297 L 8.060969352722168 8.199780464172363 L 35.99959945678711 8.199780464172363 L 35.99959945678711 1.000000715255737 L 0.9999997019767761 1.000000715255737 L 0.9999997019767761 45.00030136108398 L 35.99959945678711 45.00030136108398 M 36.99959945678711 46.00030136108398 L -2.716064386731887e-07 46.00030136108398 L -2.716064386731887e-07 6.805419729971618e-07 L 36.99959945678711 6.805419729971618e-07 L 36.99959945678711 9.199780464172363 L 9.060969352722168 9.199780464172363 L 9.060969352722168 18.40026092529297 L 36.99959945678711 18.40026092529297 L 36.99959945678711 27.60004043579102 L 9.060969352722168 27.60004043579102 L 9.060969352722168 36.79983139038086 L 36.99959945678711 36.79983139038086 L 36.99959945678711 46.00030136108398 Z" stroke="none" fill="#f80a0a"/>
    </g>
    <g id="Rectangle_5" data-name="Rectangle 5" fill="none" stroke="#eb0e0e" stroke-width="5">
      <rect width="64" height="64" stroke="none"/>
      <rect x="2.5" y="2.5" width="59" height="59" fill="none"/>
    </g>
  </g>
  <g id="Rectangle_6" data-name="Rectangle 6" fill="#2f2525" stroke="#4b3939" stroke-width="1" opacity="0.81">
    <rect width="64" height="64" stroke="none"/>
    <rect x="0.5" y="0.5" width="63" height="63" fill="none"/>
  </g>
</svg>
